# xmcd
#
# Track frame offsets:
#   150
#   19207
#   44250
#   57765
#   87010
#   104257
#   123797
#   138577
#   155895
#   176897
#
# Disc length: 2695 seconds
#
# Revision: 0
# Processed by: cddbd v1.4PL0 Copyright (c) Steve Scherf et al.
# Submitted via: uFREEDB 1.6.0
#
DISCID=830a850a
DTITLE=Tutu jones - Blue Texas Soul
DYEAR=1995
DGENRE=Blues
TTITLE0=The sky is Crying
TTITLE1=Chronic Late Arriver
TTITLE2=Check Out Yourself
TTITLE3=Have You Ever Loved a Woman
TTITLE4=It's been a Mistake
TTITLE5=You Never had Love
TTITLE6=Things Are Looking Up
TTITLE7=I've Been Loving you
TTITLE8=I'll Play the Blues For You
TTITLE9=I'm Not Ashamed to Play the Blues
EXTD=
EXTT0=
EXTT1=
EXTT2=
EXTT3=
EXTT4=
EXTT5=
EXTT6=
EXTT7=
EXTT8=
EXTT9=
PLAYORDER=
